<?xml version="1.0" encoding="UTF-8" standalone="no"?>
<!-- Created with Inkscape (http://www.inkscape.org/) -->

<svg
   xmlns:dc="http://purl.org/dc/elements/1.1/"
   xmlns:cc="http://creativecommons.org/ns#"
   xmlns:rdf="http://www.w3.org/1999/02/22-rdf-syntax-ns#"
   xmlns:svg="http://www.w3.org/2000/svg"
   xmlns="http://www.w3.org/2000/svg"
   xmlns:sodipodi="http://sodipodi.sourceforge.net/DTD/sodipodi-0.dtd"
   xmlns:inkscape="http://www.inkscape.org/namespaces/inkscape"
   width="297mm"
   height="210mm"
   viewBox="0 0 297 210"
   version="1.1"
   id="svg8"
   inkscape:version="0.92.4 (5da689c313, 2019-01-14)"
   sodipodi:docname="Logo s fiksiranim tekstom.svg"
   inkscape:export-filename="C:\Users\Admin\Desktop\Radio Zvono logo\v.1 (Black Chancery).png"
   inkscape:export-xdpi="600"
   inkscape:export-ydpi="600">
  <defs
     id="defs2" />
  <sodipodi:namedview
     id="base"
     pagecolor="#ffffff"
     bordercolor="#666666"
     borderopacity="1.0"
     inkscape:pageopacity="0.0"
     inkscape:pageshadow="2"
     inkscape:zoom="2.3086868"
     inkscape:cx="609.93282"
     inkscape:cy="485.76264"
     inkscape:document-units="mm"
     inkscape:current-layer="layer1"
     showgrid="false"
     inkscape:window-width="3840"
     inkscape:window-height="2050"
     inkscape:window-x="-12"
     inkscape:window-y="-12"
     inkscape:window-maximized="1" />
  <metadata
     id="metadata5">
    <rdf:RDF>
      <cc:Work
         rdf:about="">
        <dc:format>image/svg+xml</dc:format>
        <dc:type
           rdf:resource="http://purl.org/dc/dcmitype/StillImage" />
        <dc:title></dc:title>
      </cc:Work>
    </rdf:RDF>
  </metadata>
  <g
     inkscape:label="Layer 1"
     inkscape:groupmode="layer"
     id="layer1"
     transform="translate(0,-87)">
    <g
       id="g38"
       inkscape:export-xdpi="600"
       inkscape:export-ydpi="600">
      <path
         sodipodi:nodetypes="cccsczcccccccccccccccccccccsccccccccczscscccccccccczsszscccccccscccccscscccccccccccscsccccccccccscccscccssccccccccccccccccccccccccccccccccscccccccccccc"
         inkscape:connector-curvature="0"
         id="path3732"
         d="m 83.841573,134.48224 c -0.440051,0.0693 -0.877655,0.19568 -1.276622,0.39641 -0.168699,0.12729 -0.360707,0.3143 -0.426964,0.4153 -0.129377,0.19714 -0.7364,1.97148 -2.841669,8.30701 -0.280744,0.84487 -0.566668,1.75105 -0.607127,1.82141 1.177881,-0.0334 4.417599,0.17697 6.393735,0.62539 1.976135,0.44842 4.045734,1.02609 6.028187,1.9612 0,0 0.331006,-2.39063 0.649105,-6.60491 0.09245,-1.21812 0.317313,-3.25338 0.311768,-4.07501 -0.346621,-1.69567 -2.979635,-2.12589 -3.917171,-2.3216 -0.730411,-0.15096 -1.746884,-0.36414 -2.258772,-0.47367 -0.580522,-0.1236 -1.321048,-0.16699 -2.05447,-0.0515 z m 1.638574,3.41056 c 2.016342,-0.31378 3.901282,1.04048 4.210214,3.02491 0.308859,1.98443 -1.075263,3.84756 -3.091582,4.16149 -2.016344,0.31379 -3.901285,-1.04048 -4.210217,-3.0249 -0.308858,-1.98443 1.075263,-3.84756 3.091585,-4.1615 z m -8.963661,8.95611 c -0.755273,0.12118 -1.466378,0.32074 -2.391151,0.65148 -3.095573,1.10711 -5.960729,3.65123 -7.446699,6.61287 -0.46968,0.9361 -0.612794,1.29635 -1.426794,3.58438 -0.142002,0.39912 -0.303732,0.84832 -0.35922,0.99834 -0.05545,0.15001 -0.334127,0.94535 -0.619718,1.76741 -0.285587,0.82206 -0.567509,1.6179 -0.626353,1.76844 -0.118348,0.30285 -0.633701,1.82483 -1.497754,4.42541 -0.765547,2.30412 -0.72989,2.2117 -1.393437,3.65083 -0.666536,1.44563 -0.775278,1.63904 -1.532899,2.72803 -1.496464,2.15102 -3.552139,4.16467 -6.859576,6.71917 -2.737911,2.11462 -4.233627,3.59316 -5.927082,5.85908 -1.114915,1.49182 -1.273114,1.8242 -0.763366,1.60725 1.911612,-0.81358 7.121662,-1.49661 10.802536,-1.41636 2.132453,0.0465 4.884986,0.17877 6.1292,0.2943 0.7651,0.071 1.625633,0.14795 1.911983,0.17098 2.027935,0.16301 6.942614,0.88116 9.776279,1.4284 0.558766,0.10791 1.114861,0.2116 1.235653,0.23075 0.120809,0.0192 0.698718,0.14232 1.284642,0.27334 1.830758,0.40856 3.417962,0.73972 5.343427,1.25025 1.04123,0.25663 2.628643,0.71908 4.155024,1.14499 1.526383,0.42591 3.136705,1.00646 4.87607,1.59757 1.739366,0.59112 4.989893,1.90798 6.661996,2.73269 1.427868,0.70425 1.65916,0.82467 2.570373,1.33988 1.70172,0.96216 3.37165,2.11329 4.09809,2.82532 0.24784,0.24291 0.49798,0.43612 0.55579,0.42915 0.1988,-0.0244 -0.22152,-2.14161 -0.74171,-3.73687 -0.57703,-1.76957 -1.50968,-3.901 -2.28234,-5.21455 -0.95179,-1.61809 -2.452175,-4.66086 -2.845188,-5.76969 -0.09498,-0.26798 -0.226927,-0.6135 -0.2932,-0.76813 -0.284613,-0.66451 -0.660952,-2.00324 -0.893482,-3.1798 -0.40512,-2.0497 -0.411848,-3.4486 -0.03859,-7.81422 0.132713,-1.5523 0.266076,-3.15426 0.296298,-3.55955 0.0908,-1.2181 0.230859,-3.26706 0.30201,-4.41657 0.03682,-0.59483 0.05741,-0.93937 0.12947,-2.03418 0.07206,-1.09481 -7.97e-4,-3.14448 -0.33915,-4.53067 -0.451399,-1.84932 -1.150716,-3.38874 -2.220188,-4.88585 -2.216734,-2.62912 -4.99732,-4.28655 -7.057226,-5.16425 -2.059907,-0.8777 -3.749769,-1.25455 -5.199954,-1.4776 -2.000124,-0.30764 -3.667523,-0.38307 -5.911059,-0.26707 -0.54072,0.0279 -1.009542,0.0724 -1.462705,0.14505 z m 0.521948,2.45943 c 1.419105,-0.22197 2.259001,1.48131 1.189145,2.41153 -0.229243,0.1993 -0.441506,0.28272 -1.07298,0.42119 -2.173234,0.47667 -3.948228,1.6763 -5.220357,3.52848 -0.639849,0.93158 -0.849333,1.44545 -2.518752,6.1784 -0.140708,0.39891 -0.342414,0.97026 -0.448278,1.26951 -0.448061,1.26646 -0.694757,1.98785 -1.17741,3.43939 -0.280933,0.8449 -0.336322,1.10297 -0.572504,1.62722 -0.171243,0.38011 -0.284334,0.84682 -0.608656,1.09261 -0.665758,0.48309 -1.613593,0.29107 -2.010546,-0.40772 -0.274323,-0.48293 -0.244291,-0.82149 0.18943,-2.11934 0.44381,-1.32805 1.371663,-4.02633 1.643439,-4.77966 0.09006,-0.24965 0.464857,-1.31061 0.832757,-2.35755 1.085962,-3.09037 1.431623,-3.949 1.95921,-4.86438 1.186724,-2.05898 3.0537,-3.7147 5.251672,-4.65777 0.751698,-0.32253 1.936508,-0.68384 2.56383,-0.78191 z m -27.469905,38.38258 c -0.856888,0.13903 -1.634071,0.30088 -2.201238,0.46712 -2.319977,0.68 -3.525225,1.49927 -3.898544,2.64963 -0.151332,0.46636 -0.154027,0.57265 -0.02797,1.15754 0.261851,1.21513 1.248109,2.3784 3.221035,3.79966 1.046892,0.75416 2.77439,1.80139 3.831602,2.3229 0.249061,0.12286 0.630853,0.31164 0.848676,0.41912 0.573279,0.28287 1.597596,0.75848 2.075691,0.96397 0.987588,0.42447 2.309096,0.96686 2.343088,0.96157 0.02037,-0.003 0.19138,0.0607 0.37978,0.14171 1.293698,0.55623 7.750233,2.70555 8.00713,2.66556 0.01752,-0.003 0.450987,0.11711 0.962973,0.2664 0.511992,0.14929 1.291941,0.36057 1.732998,0.46923 0.441062,0.10864 0.922568,0.2297 1.070081,0.26908 0.636032,0.16973 2.101097,0.51607 2.713209,0.64141 3.547371,0.72955 7.102282,1.34709 10.69135,1.86753 -0.438538,-1.1262 -0.671295,-2.17573 -0.671295,-2.17573 l -0.704148,-0.11894 c -0.387218,-0.0655 -1.376654,-0.22908 -2.198702,-0.36326 -0.822051,-0.13419 -1.892065,-0.32231 -2.378233,-0.41795 -0.486163,-0.0957 -1.142455,-0.22241 -1.458037,-0.28191 -1.773842,-0.33446 -6.082339,-1.3529 -8.36218,-1.97643 -0.270721,-0.074 -0.632791,-0.17256 -0.804947,-0.21883 -0.609528,-0.16394 -5.547236,-1.73026 -6.129256,-1.94432 -1.133177,-0.41679 -2.235411,-0.84317 -2.947193,-1.14001 -0.394293,-0.16443 -0.7332,-0.29642 -0.753257,-0.29329 -0.09333,0.0145 -2.997279,-1.38979 -3.900685,-1.88643 -0.557911,-0.3067 -1.580626,-0.97171 -2.27281,-1.47771 -1.054563,-0.77094 -1.329027,-1.01865 -1.694608,-1.52955 -0.386993,-0.54079 -0.446971,-0.6775 -0.529355,-1.20676 -0.08565,-0.55022 -0.07533,-0.62754 0.131549,-0.99271 0.29349,-0.51807 1.097307,-1.07086 2.063455,-1.41947 0.548368,-0.19789 1.167272,-0.33291 2.486385,-0.54027 2.084134,-0.32811 3.591054,-0.41657 6.134956,-0.36085 0.390127,0.009 1.047738,0.023 1.461486,0.0319 2.457587,0.0589 4.422229,0.26475 6.83383,0.55071 1.60108,0.18568 2.370759,0.2853 2.885334,0.373 0.290469,0.0495 1.041536,0.16792 1.669025,0.26319 0.62748,0.0953 1.419177,0.22641 1.759206,0.29151 0.340034,0.0651 0.835907,0.15432 1.101934,0.19823 0.556784,0.0918 2.141976,0.40029 3.048812,0.59336 0.341203,0.0726 0.918931,0.19461 1.284324,0.2713 0.708658,0.14873 3.279712,0.76085 4.315586,1.02742 0.566051,0.14566 1.572268,0.41682 3.175394,0.85555 1.438762,0.39375 5.467325,1.72032 6.683251,2.20064 0.225967,0.0893 0.635483,0.24429 0.910306,0.34468 0.478487,0.17479 0.68643,0.25869 2.080773,0.83871 2.334172,0.99426 10.99409,5.10544 6.87826,7.86823 -0.62895,0.37994 -1.484939,0.69524 -3.903173,1.07774 l -2.280479,0.36124 c -0.278727,0.70453 -0.48543,1.24633 -0.853606,1.9649 3.199188,0.0657 9.052558,-0.8368 10.663658,-2.7655 0.40281,-0.53433 0.52851,-1.06349 0.4195,-1.76344 -0.20037,-1.28661 -1.32604,-2.57629 -3.65854,-4.19127 -2.311256,-1.60028 -5.545216,-3.19297 -9.642955,-4.74816 -1.62922,-0.61832 -5.506177,-1.90383 -6.958226,-2.30741 -0.368877,-0.10251 -0.872272,-0.2433 -1.118718,-0.31276 -0.246446,-0.0695 -0.810156,-0.22208 -1.252504,-0.33901 -0.442346,-0.11691 -0.985656,-0.26263 -1.207293,-0.32407 -1.501545,-0.41623 -5.348662,-1.26381 -7.674943,-1.69065 -0.630673,-0.11572 -1.265572,-0.23258 -1.411208,-0.25991 -1.92447,-0.3604 -4.811006,-0.7797 -7.013934,-1.01899 -1.623914,-0.1764 -1.705892,-0.18423 -2.088414,-0.20575 -0.190181,-0.0107 -0.736933,-0.0578 -1.215508,-0.10471 -1.265848,-0.12402 -2.714918,-0.20745 -3.890826,-0.22382 -1.540751,-0.053 -3.134091,-0.0255 -4.41309,-7.8e-4 -1.270692,0.025 -2.920621,0.19415 -4.348766,0.42589 z m 34.637862,6.58783 c 0.02358,1.19361 0.130623,4.0496 0.13136,4.06932 -1.752691,1.33405 -2.634828,3.51051 -2.300449,5.67582 0.509091,3.27009 3.590945,5.50553 6.883617,4.99306 3.292651,-0.5126 5.549224,-3.57901 5.040269,-6.84913 -0.26903,-1.71971 -1.277604,-3.2367 -2.76352,-4.15643 l 0.02747,-0.002 -0.156567,-1.75169 z"
         style="fill:#f1c212;stroke-width:0.08466667" />
      <path
         inkscape:connector-curvature="0"
         id="path4606"
         d="m 25.143212,183.83281 c -0.02517,-0.0131 -0.07408,-0.0211 -0.108679,-0.017 -0.03452,0.003 -0.09242,-0.0117 -0.128473,-0.0342 -0.03716,-0.0231 -0.09921,-0.0385 -0.143133,-0.0354 -0.05268,0.003 -0.103604,-0.0136 -0.158666,-0.0522 -0.04462,-0.0316 -0.09007,-0.0528 -0.101018,-0.0472 -0.04056,0.0206 -0.236187,-0.0854 -0.268963,-0.14579 -0.02566,-0.0473 -0.04839,-0.0604 -0.09571,-0.0549 -0.03684,0.004 -0.10376,-0.0177 -0.164522,-0.0533 -0.08156,-0.048 -0.100347,-0.0711 -0.09216,-0.11391 0.01241,-0.0652 -0.03597,-0.0931 -0.10753,-0.0623 -0.04374,0.019 -0.06992,0.0109 -0.152687,-0.0474 -0.05495,-0.0387 -0.109001,-0.0913 -0.120137,-0.11699 -0.01113,-0.0257 -0.05136,-0.0564 -0.08939,-0.0681 -0.07127,-0.022 -0.313055,-0.26896 -0.309169,-0.31584 0.0012,-0.0145 -0.01271,-0.0409 -0.03094,-0.0587 -0.07996,-0.0783 -0.0019,-0.30477 0.183132,-0.53112 0.05177,-0.0634 0.12199,-0.17448 0.156007,-0.24694 0.0798,-0.16997 0.230125,-0.39646 0.356461,-0.53705 0.125922,-0.14014 0.301609,-0.22776 0.656689,-0.32746 0.154074,-0.0432 0.367354,-0.11943 0.473945,-0.16932 0.10659,-0.0499 0.297518,-0.13344 0.424275,-0.18581 0.1352,-0.0559 0.254209,-0.12246 0.287921,-0.1611 0.0316,-0.0363 0.09879,-0.0829 0.149314,-0.10381 0.05053,-0.0207 0.10648,-0.0607 0.124346,-0.0887 0.04252,-0.0667 0.07836,-0.0848 0.128103,-0.0648 0.05664,0.023 0.192859,-0.0966 0.19936,-0.17484 0.0065,-0.0779 0.09036,-0.14953 0.167805,-0.14311 0.0723,0.006 0.09998,-0.0407 0.06797,-0.11463 -0.02088,-0.0482 -0.03643,-0.0537 -0.138221,-0.0487 -0.06308,0.003 -0.189463,0.0244 -0.28067,0.0487 -0.169852,0.0439 -0.215562,0.0406 -0.232465,-0.0172 -0.01571,-0.0539 0.04398,-0.18709 0.105794,-0.23606 0.09735,-0.0771 0.187363,-0.0875 0.540906,-0.0613 0.339734,0.0251 0.340977,0.0242 0.360083,-0.0315 0.01058,-0.031 0.01157,-0.0912 0.0023,-0.13369 -0.02365,-0.10823 0.03042,-0.35109 0.09863,-0.44348 0.03128,-0.0424 0.05923,-0.10243 0.0621,-0.13344 0.0074,-0.0805 0.08787,-0.21438 0.23962,-0.39891 0.188277,-0.22893 0.31264,-0.30779 0.546317,-0.34645 l 0.112543,-0.0195 0.194905,-0.29732 c 0.107192,-0.16354 0.399289,-0.59733 0.649093,-0.96399 0.526413,-0.77264 0.575078,-0.84709 1.08797,-1.66457 0.21144,-0.33701 0.506745,-0.79599 0.656231,-1.01994 0.304301,-0.45591 0.421464,-0.65879 0.676578,-1.17152 0.189372,-0.38059 0.23806,-0.45838 0.469993,-0.75083 0.08306,-0.10472 0.263246,-0.34226 0.400426,-0.52786 0.308668,-0.41759 0.824473,-1.06059 1.044463,-1.302 0.30683,-0.3367 1.032205,-1.15063 1.235194,-1.38599 0.11093,-0.12862 0.441164,-0.49868 0.733868,-0.82239 0.292702,-0.3237 0.675986,-0.75927 0.851744,-0.96793 0.512604,-0.60854 0.750316,-0.86857 1.511364,-1.65334 1.707076,-1.76022 2.103904,-2.14624 2.439413,-2.37298 0.14856,-0.10045 0.362159,-0.25603 0.474655,-0.34584 0.112502,-0.0898 0.270904,-0.20999 0.352011,-0.26706 0.08109,-0.0572 0.139451,-0.11269 0.129638,-0.12377 -0.0098,-0.0111 -0.09827,-0.0616 -0.196589,-0.11253 -0.129219,-0.0669 -0.186475,-0.11099 -0.20659,-0.15936 -0.114934,-0.27604 0.01458,-1.33436 0.225506,-1.84282 0.04761,-0.11477 0.100371,-0.32362 0.156553,-0.61971 0.09453,-0.49816 0.19199,-0.91952 0.34147,-1.4763 0.07955,-0.29635 0.107539,-0.4505 0.134517,-0.74092 0.0533,-0.57371 0.106801,-1.53264 0.09877,-1.76998 -0.004,-0.11852 -8.71e-4,-0.37073 0.007,-0.56048 0.0165,-0.39937 0.0095,-0.92088 -0.01826,-1.3612 -0.01511,-0.23993 -0.04745,-0.4213 -0.145409,-0.81666 -0.355991,-1.43634 -0.561999,-2.8364 -0.635465,-4.31873 l -0.03901,-0.78711 -0.233529,-0.29226 c -0.361698,-0.45265 -0.452888,-0.5849 -0.689738,-1.00014 -0.282722,-0.4957 -0.308172,-0.55192 -0.317134,-0.70062 l -0.0075,-0.12349 -0.352891,-0.34744 c -0.876482,-0.86296 -1.628971,-1.80707 -1.966011,-2.46665 -0.07265,-0.14218 -0.150201,-0.24549 -0.289234,-0.38531 -0.104475,-0.10509 -0.214225,-0.22233 -0.243882,-0.26055 -0.08245,-0.10629 -0.401575,-0.36825 -0.586286,-0.48124 -0.217863,-0.13326 -0.404906,-0.28458 -0.561749,-0.45447 -0.150194,-0.16271 -0.27199,-0.24057 -0.525201,-0.33578 -0.220641,-0.0829 -0.743198,-0.38938 -1.02183,-0.5992 -0.543479,-0.40926 -1.4994,-1.49202 -2.035806,-2.30593 -0.44355,-0.67303 -0.586823,-0.87198 -0.681513,-0.94636 l -0.09399,-0.0738 -0.132996,0.0473 c -0.144043,0.0512 -0.356283,0.0691 -0.733257,0.0619 -0.21558,-0.004 -0.252733,-0.011 -0.358011,-0.0671 -0.07089,-0.0377 -0.140373,-0.0587 -0.175163,-0.0531 -0.105673,0.0174 -0.421303,0.29048 -0.600972,0.51997 -0.288582,0.36863 -0.657731,0.54739 -0.849638,0.41145 -0.214556,-0.15198 -0.100899,-0.37275 0.45662,-0.88691 0.182256,-0.16808 0.332513,-0.31932 0.333903,-0.33608 0.0034,-0.0402 -0.04504,-0.0608 -0.09487,-0.0402 -0.06123,0.0252 -0.696339,0.57935 -0.824915,0.71969 -0.186227,0.2033 -0.321898,0.28113 -0.468775,0.26895 -0.03563,-0.003 -0.07656,-0.0192 -0.09089,-0.0362 -0.02022,-0.0239 -0.04159,-0.0203 -0.09564,0.0155 -0.131287,0.0878 -0.208527,0.1118 -0.288549,0.0899 -0.0421,-0.0116 -0.08827,-0.0379 -0.102623,-0.0584 -0.01436,-0.0206 -0.04387,-0.0389 -0.06559,-0.0407 -0.02169,-0.002 -0.07271,-0.036 -0.113323,-0.0762 -0.0872,-0.086 -0.07732,-0.13415 0.05334,-0.25982 0.151347,-0.14557 0.574139,-0.69857 0.730389,-0.95532 0.05393,-0.0887 0.150232,-0.22743 0.214008,-0.30847 0.06377,-0.0812 0.140296,-0.19326 0.170043,-0.24936 0.05453,-0.10271 0.197893,-0.22862 0.27943,-0.24527 0.02416,-0.006 0.159666,-0.0168 0.300877,-0.0267 0.217089,-0.0154 0.309524,-0.009 0.59834,0.0363 0.434062,0.0686 1.047056,0.11985 1.28006,0.10689 0.09915,-0.005 0.285619,-0.0104 0.414477,-0.0109 0.468708,-0.002 0.895911,0.18554 1.363877,0.59809 0.4168,0.36743 0.903136,0.66416 1.604539,0.97898 0.253202,0.11361 0.547828,0.25313 0.654732,0.30994 0.106903,0.0568 0.426581,0.21813 0.710397,0.35844 0.567917,0.28076 0.972937,0.52085 1.338836,0.79364 0.343449,0.25605 0.945731,0.76994 1.155886,0.98626 0.145329,0.14958 0.212177,0.19913 0.348629,0.25844 0.459441,0.19968 1.255003,0.9204 2.271548,2.05785 0.37273,0.41708 1.207236,1.25173 1.360244,1.3605 0.08824,0.0628 0.146569,0.0868 0.219023,0.0902 0.112016,0.005 0.275425,0.10714 0.652696,0.40625 0.255528,0.20262 0.454029,0.46166 0.591477,0.77188 0.076,0.17154 0.09978,0.20147 0.246706,0.31068 0.141179,0.10494 0.193425,0.12843 0.396583,0.17836 0.340368,0.0836 0.483594,0.12649 0.54434,0.16286 0.03726,0.0222 0.0813,0.11147 0.143273,0.29002 0.04921,0.1418 0.105133,0.2621 0.124296,0.26734 0.01908,0.005 0.193905,-0.0303 0.388348,-0.079 0.346116,-0.0866 0.354277,-0.0902 0.389331,-0.17035 0.02935,-0.0671 0.03089,-0.10065 0.0085,-0.18588 -0.01497,-0.0572 -0.04049,-0.12835 -0.05664,-0.15811 -0.04112,-0.0758 -0.656251,-0.47038 -0.912565,-0.58542 -0.174067,-0.0782 -0.230564,-0.11706 -0.30951,-0.21296 -0.08176,-0.0994 -0.09738,-0.13681 -0.101848,-0.24411 -0.0084,-0.20172 0.03091,-0.31824 0.164368,-0.48729 0.116656,-0.14778 0.120492,-0.15722 0.115648,-0.28458 -0.0027,-0.0725 -3.13e-4,-0.1797 0.0054,-0.23831 0.0057,-0.0587 0.01684,-0.18371 0.02466,-0.27798 0.01131,-0.13634 0.02848,-0.19459 0.08396,-0.28472 0.03835,-0.0623 0.07125,-0.13152 0.0731,-0.15381 0.0018,-0.0222 -0.05435,-0.10552 -0.124866,-0.18498 -0.232147,-0.26154 -0.198749,-0.38747 0.163602,-0.6168 0.133913,-0.0847 0.325936,-0.19896 0.426723,-0.2538 0.10234,-0.0556 0.194989,-0.12427 0.20985,-0.15534 0.01463,-0.0306 0.03208,-0.1217 0.03879,-0.20244 0.01699,-0.20478 0.05259,-0.2833 0.190487,-0.42 0.06591,-0.0654 0.18413,-0.21303 0.262695,-0.3282 0.455597,-0.66781 0.751303,-0.92508 1.273413,-1.10792 0.269505,-0.0944 0.305234,-0.10065 0.620891,-0.10829 0.457573,-0.0111 0.820866,0.062 1.291496,0.26076 0.718925,0.3033 1.196057,0.71365 1.521432,1.30847 0.141876,0.25937 0.180618,0.35734 0.246977,0.62453 0.06447,0.25954 0.07942,0.37312 0.0826,0.6276 0.0036,0.28641 -0.0018,0.33272 -0.06899,0.59247 -0.08719,0.33709 -0.253824,0.71464 -0.431462,0.97758 -0.256323,0.37942 -0.694757,0.76687 -1.04818,0.92627 -0.267863,0.12083 -0.429948,0.36748 -0.457169,0.6957 -0.01404,0.1693 0.04184,0.62045 0.09143,0.7382 0.08411,0.1997 0.287635,0.31984 0.602279,0.35549 0.205173,0.023 0.230518,0.0318 0.348322,0.11819 0.06988,0.0513 0.35096,0.24326 0.624624,0.42683 0.273665,0.18355 0.734795,0.51764 1.024736,0.74243 0.440078,0.34119 0.575528,0.43277 0.819919,0.55434 0.630474,0.31363 0.895577,0.50641 1.502609,1.09267 0.296848,0.2867 0.799137,0.8443 0.876991,0.97356 0.02331,0.0387 0.04021,0.11869 0.03944,0.18653 -0.0025,0.21605 0.221864,0.4859 0.717119,0.86259 0.428396,0.32583 0.655947,0.52143 1.178912,1.0134 0.739151,0.69534 0.985125,0.87606 1.646241,1.20949 0.777516,0.39215 1.429572,0.81485 1.539243,0.99785 0.07922,0.13218 0.325503,0.45764 0.732921,0.96854 0.22494,0.28207 0.445527,0.5234 0.719523,0.78712 0.347131,0.33413 0.436853,0.40638 0.738555,0.59467 0.309705,0.1933 1.073989,0.61015 1.521807,0.83002 0.168933,0.0829 0.270873,0.15796 0.447924,0.32955 l 0.08911,0.0863 0.307861,-0.50586 c 0.169326,-0.27821 0.364835,-0.57688 0.43447,-0.66368 0.149989,-0.18696 0.204787,-0.27431 0.464271,-0.73997 0.214785,-0.38545 0.372856,-0.63179 0.599628,-0.93446 0.08131,-0.1085 0.188236,-0.27608 0.237609,-0.37233 0.09266,-0.18062 0.09882,-0.18527 0.277187,-0.20937 0.04214,-0.006 0.09087,-0.0414 0.133485,-0.098 0.08045,-0.10674 0.163103,-0.12733 0.267292,-0.0666 0.07675,0.0447 0.09882,0.11433 0.08585,0.2707 l -0.006,0.0729 0.08783,-0.0721 c 0.09801,-0.0804 0.154648,-0.0757 0.258727,0.0211 0.04317,0.0401 0.05721,0.0764 0.05235,0.13528 -0.0084,0.1013 -0.09666,0.28976 -0.21037,0.44919 -0.04828,0.0676 -0.125276,0.18957 -0.171107,0.27087 -0.04583,0.0813 -0.135427,0.22084 -0.199106,0.31011 -0.06367,0.0893 -0.124196,0.18094 -0.134483,0.2037 -0.01032,0.0229 -0.114646,0.18931 -0.231914,0.37003 -0.117266,0.18073 -0.229138,0.37952 -0.248605,0.44175 -0.01947,0.0622 -0.08147,0.20745 -0.137761,0.32272 -0.113469,0.23233 -0.167136,0.45601 -0.124166,0.5175 0.06641,0.095 0.251144,-10e-4 0.645634,-0.33577 0.335862,-0.28495 0.499248,-0.36844 0.690177,-0.3526 0.09392,0.008 0.120317,0.0215 0.175515,0.0914 0.05834,0.0738 0.06259,0.093 0.04159,0.18732 -0.05249,0.23587 -0.280274,0.48613 -0.567383,0.62336 -0.204468,0.0977 -0.49062,0.35073 -0.615023,0.54377 -0.08484,0.13165 -0.237312,0.30072 -0.52614,0.58339 -0.30583,0.2993 -0.722323,0.55816 -1.22024,0.75839 l -0.248987,0.10009 -0.357033,-0.0548 -0.357035,-0.0548 -0.224853,-0.13464 c -0.123675,-0.0742 -0.367477,-0.22849 -0.541799,-0.34321 -0.590658,-0.38869 -1.031565,-0.61234 -1.592325,-0.8077 -0.121252,-0.0424 -0.350699,-0.12553 -0.509912,-0.18495 -0.159202,-0.0594 -0.41527,-0.14579 -0.569029,-0.19179 -0.472657,-0.14142 -0.918298,-0.3823 -1.268211,-0.68547 -0.284854,-0.2468 -0.616675,-0.57869 -0.722631,-0.72279 -0.05573,-0.0758 -0.190446,-0.22891 -0.299388,-0.34032 -0.423463,-0.43305 -0.93022,-0.93399 -1.026063,-1.0143 -0.05524,-0.0463 -0.291281,-0.17987 -0.524508,-0.29684 -0.478996,-0.24024 -0.600521,-0.31763 -1.405983,-0.89547 -0.765884,-0.54943 -0.892327,-0.65591 -1.2965,-1.0919 -0.209722,-0.22623 -0.210986,-0.22712 -0.451184,-0.31734 -0.392823,-0.14753 -0.633469,-0.20603 -0.95726,-0.2327 -0.265471,-0.0218 -0.309244,-0.0197 -0.419471,0.0235 -0.174365,0.0677 -0.268916,0.20199 -0.312836,0.44412 -0.01814,0.10019 -0.08665,0.31734 -0.152187,0.48259 -0.07195,0.18147 -0.13979,0.40282 -0.171249,0.5588 -0.02895,0.14354 -0.104556,0.39611 -0.170175,0.56846 -0.114755,0.30141 -0.118936,0.32059 -0.148347,0.68007 -0.01664,0.20345 -0.02808,0.46827 -0.02541,0.58849 0.0042,0.19065 -0.0059,0.25994 -0.07947,0.54253 -0.234944,0.90243 -0.337401,2.03184 -0.270575,2.98252 0.03243,0.46138 0.06431,0.75531 0.141085,1.30095 0.06326,0.44933 0.09333,1.164 0.06662,1.58161 l -0.01657,0.25919 -0.11955,0.0654 c -0.06574,0.0359 -0.125986,0.0707 -0.13385,0.0774 -0.0377,0.0319 -0.06491,0.19281 -0.06342,0.37505 0.0013,0.16247 0.0159,0.23681 0.07535,0.38401 0.04054,0.1004 0.104311,0.31059 0.1417,0.46711 0.0374,0.15651 0.144316,0.52129 0.237627,0.81064 0.258204,0.80076 0.45918,1.71997 0.668616,3.05804 0.12353,0.78921 0.418503,2.52071 0.530132,3.11191 0.05794,0.30681 0.160638,0.87938 0.228232,1.27234 0.06755,0.393 0.157178,0.88115 0.199102,1.08482 0.100258,0.48713 0.17213,0.959 0.229262,1.50535 0.02567,0.24505 0.06642,0.56537 0.09062,0.71182 0.0362,0.21893 0.03974,0.319 0.0201,0.56273 -0.01371,0.16992 -0.04342,0.35933 -0.06964,0.44376 -0.05627,0.18129 -0.07918,0.64591 -0.06694,1.35753 0.01362,0.79151 0.01174,0.77726 0.120323,0.91498 0.137788,0.17478 0.208507,0.30994 0.335283,0.64075 0.09247,0.2413 0.112003,0.32001 0.105813,0.4266 -0.0042,0.0718 0.0036,0.15507 0.01722,0.18488 0.01365,0.0299 0.02359,0.0688 0.0221,0.0867 -0.0037,0.0441 0.103147,0.15916 0.323807,0.34892 0.177081,0.15227 0.191619,0.15983 0.36621,0.19036 0.455498,0.0796 0.536729,0.13192 0.61276,0.39433 0.0302,0.10419 0.06278,0.25424 0.07242,0.33343 0.0096,0.0792 0.04322,0.20758 0.07462,0.2853 0.06997,0.17323 0.06581,0.29293 -0.01173,0.33818 -0.06532,0.0381 -0.701032,0.18786 -0.908305,0.21405 -0.279813,0.0355 -0.849921,0.13433 -1.164257,0.20157 -0.174665,0.0376 -0.34086,0.0663 -0.369375,0.0636 -0.0285,-0.003 -0.115702,0.0119 -0.193818,0.0322 -0.07811,0.0203 -0.217269,0.0454 -0.309142,0.0562 -0.09185,0.0113 -0.270153,0.0329 -0.396255,0.0481 -0.126043,0.0156 -0.288078,0.0274 -0.360144,0.0255 l -0.130967,-0.003 -0.06228,-0.24966 c -0.06074,-0.24348 -0.06112,-0.2513 -0.01574,-0.31537 0.06367,-0.0899 0.06256,-0.11122 -0.01705,-0.33088 -0.08506,-0.23465 -0.123103,-0.59567 -0.108379,-1.02816 l 0.01046,-0.30673 -0.125444,-0.16736 c -0.137394,-0.1833 -0.266403,-0.46561 -0.307976,-0.67397 -0.01467,-0.0734 -0.03146,-0.26822 -0.03744,-0.43286 -0.01181,-0.32738 -0.12145,-0.84265 -0.324097,-1.52347 -0.218759,-0.73485 -0.314977,-1.25963 -0.290326,-1.58348 0.01419,-0.18677 -0.05998,-0.50656 -0.277316,-1.19543 -0.216683,-0.68674 -0.277293,-0.84505 -0.558057,-1.45769 -0.110882,-0.24195 -0.322987,-0.75911 -0.471366,-1.14929 -0.529754,-1.39303 -0.919495,-2.33679 -1.149333,-2.78309 -0.111307,-0.21613 -0.116044,-0.22133 -0.309151,-0.33923 -0.166536,-0.10172 -0.250715,-0.13436 -0.55811,-0.21655 l -0.361992,-0.0967 -1.114439,-0.0927 c -0.640134,-0.0531 -1.251651,-0.0923 -1.436818,-0.0919 -0.432653,9.6e-4 -1.261566,0.10631 -1.763831,0.22406 l -0.404181,0.0948 -0.296561,0.20793 c -0.620342,0.43496 -1.438789,1.07336 -2.593095,2.02265 -0.444132,0.36523 -0.973517,0.78731 -1.176412,0.93792 -0.202894,0.15063 -0.453619,0.34342 -0.557164,0.42844 -0.31882,0.26175 -1.307699,1.1801 -1.469965,1.36513 -0.221897,0.25302 -0.521894,0.66339 -1.173996,1.60595 -0.313357,0.45292 -0.901082,1.15706 -1.491053,1.78634 -0.48545,0.51779 -0.694405,0.75617 -1.047991,1.19553 -0.170547,0.2119 -0.446798,0.53674 -0.613893,0.72183 -0.167096,0.18509 -0.310199,0.35893 -0.318008,0.3863 -0.0078,0.0274 -0.03237,0.11795 -0.05457,0.2013 -0.09038,0.3391 -0.270658,0.49766 -0.855511,0.75241 -0.213133,0.0929 -0.217426,0.0963 -0.26147,0.21387 -0.02461,0.0658 -0.08503,0.26656 -0.134219,0.44632 -0.09102,0.33263 -0.239415,0.71979 -0.314845,0.82145 -0.02294,0.0309 -0.06962,0.0853 -0.103701,0.1208 -0.05502,0.0573 -0.06146,0.0799 -0.05749,0.20122 0.0044,0.13276 1.57e-4,0.1433 -0.148127,0.37163 -0.154817,0.23835 -0.32263,0.39445 -0.389461,0.36223 -0.01741,-0.008 -0.06185,0.009 -0.09884,0.0374 -0.08488,0.0666 -0.09955,0.0645 -0.23666,-0.033 -0.06199,-0.044 -0.127188,-0.0816 -0.144866,-0.0833 -0.05654,-0.005 -0.463329,0.29174 -0.880464,0.64316 -0.04236,0.0357 -0.09903,0.063 -0.125908,0.0609 -0.02684,-0.002 -0.08223,0.0254 -0.122954,0.0615 -0.04278,0.0378 -0.09855,0.0635 -0.132111,0.0606 -0.03219,-0.003 -0.08603,0.0205 -0.120631,0.0524 -0.04841,0.0443 -0.07733,0.053 -0.127797,0.0385 -0.03886,-0.0113 -0.08611,-0.007 -0.116958,0.0111 -0.03031,0.0177 -0.09902,0.0245 -0.166063,0.0167 -0.0629,-0.007 -0.136227,-0.008 -0.162979,-0.003 -0.02683,0.005 -0.06931,-2.5e-4 -0.09444,-0.0129 z m 0.917423,-4.18917 c 0.133211,-0.0605 0.147982,-0.0932 0.04615,-0.1016 -0.0775,-0.006 -0.210768,0.084 -0.188456,0.1278 0.01655,0.0325 0.01068,0.0337 0.142296,-0.0262 z"
         style="fill:#010101;stroke-width:0.02379329" />
      <g
         transform="rotate(24.724921,31.314227,140.11383)"
         id="g4920">
        <path
           style="opacity:1;fill:none;fill-opacity:1;stroke:#b3b3b3;stroke-width:0.9174034;stroke-linejoin:miter;stroke-miterlimit:4;stroke-dasharray:none"
           d="m 24.987929,139.88148 -1e-6,-1.10244 c 0,-0.15677 0.126209,-0.28298 0.282979,-0.28298 v 0 h 3.676519 c 0.15677,0 0.282978,0.12621 0.282978,0.28298 v 1.10244"
           id="path4913"
           inkscape:connector-curvature="0" />
        <rect
           style="opacity:1;vector-effect:none;fill:#666666;fill-opacity:1;stroke:none;stroke-width:0.10460795;stroke-linecap:butt;stroke-linejoin:miter;stroke-miterlimit:4;stroke-dasharray:none;stroke-dashoffset:0;stroke-opacity:1"
           id="rect4828"
           width="11.187264"
           height="4.5632339"
           x="21.515535"
           y="139.88144"
           ry="0.342902" />
        <g
           id="g4851"
           transform="translate(12.854977,0.5091771)">
          <circle
             r="0.97968805"
             cy="141.84995"
             cx="17.345728"
             id="path4832"
             style="opacity:1;fill:none;fill-opacity:1;stroke:#ffffff;stroke-width:1;stroke-linejoin:miter;stroke-miterlimit:4;stroke-dasharray:none" />
          <circle
             r="0.97968805"
             cy="141.84995"
             cx="11.162651"
             id="path4832-4"
             style="opacity:1;fill:none;fill-opacity:1;stroke:#ffffff;stroke-width:1;stroke-linejoin:miter;stroke-miterlimit:4;stroke-dasharray:none" />
        </g>
      </g>
      <g
         id="layer1-2"
         transform="matrix(0.01497119,0,0,0.01497119,15.789377,121.52123)">
        <path
           style="stroke-width:0.56730282"
           inkscape:connector-curvature="0"
           id="path2159"
           d="m 448.89776,789.92227 c -65.86386,-37.68592 -106.22178,1.02115 -95.71533,49.74111 6.74523,31.26406 65.08665,60.32131 113.54565,4.15833 7.05158,-60.67303 16.29861,-121.64107 23.35019,-182.3141 74.48686,65.6653 50.69985,105.39919 35.29758,151.14649 31.66117,-13.04797 81.24911,-70.64622 27.07169,-151.88966 -25.63642,-35.98969 -23.23105,-10.5802 -48.0619,-82.37237 -8.75348,-1.44095 -17.51263,-2.88757 -26.26612,-4.33419 -10.43837,73.98196 -18.78339,141.88243 -29.22176,215.86439 z" />
      </g>
      <g
         id="layer1-6"
         transform="matrix(0.00690478,0,0,0.00690478,25.150224,126.74875)">
        <path
           inkscape:connector-curvature="0"
           id="path5065"
           d="m 374.44,235.15 c -28.09,122.13 -59.8,271.36 -87.89,393.5 -104.65,-72.46 -177.63,-13.57 -167.08,69.36 6.77,53.22 100.11,110.2 189.18,23.32 16.56,-80.98 46.37,-214.48 68.95,-319.25 l 164.99,117.08 c -16.84,75.9 -33.39,151.3 -51.51,230.11 -104.65,-72.46 -177.71,-13.58 -167.16,69.35 6.77,53.22 100.13,110.12 189.2,23.24 l 101.09,-438.1 c -0.67,-0.17 -1.34,-0.33 -2.02,-0.5 L 612.4,403 C 597.92,391.58 388.86,238.82 374.44,235.15 Z m 19.7,90.42 165.12,119.31 c -2.51,11.13 -4.94,22.14 -7.41,33.16 L 386.64,360.23 c 2.13,-10.11 5.7,-25.87 7.5,-34.66 z" />
      </g>
    </g>
    <g
       aria-label="Radijska družina
Zvono"
       transform="matrix(0.26458333,0,0,0.26458333,-18.36587,102.12779)"
       style="font-style:normal;font-variant:normal;font-weight:normal;font-stretch:normal;font-size:96px;line-height:1;font-family:BlackChancery;-inkscape-font-specification:BlackChancery;text-align:center;letter-spacing:0px;word-spacing:0px;text-anchor:middle;fill:#f1c212;fill-opacity:1;stroke:none"
       id="flowRoot5003">
      <path
         d="m 516.00619,190.91451 q 0,3.24479 -0.80208,5.79687 -0.80208,2.55208 -2.1875,4.52083 -1.34896,1.93229 -3.13542,3.31771 -1.78645,1.38542 -3.7552,2.29688 -1.9323,0.875 -3.9375,1.27604 -1.96875,0.40104 -3.71875,0.40104 l 19.79687,17.09896 h -14.65625 l -19.76041,-17.09896 h -6.81771 v -9.47917 h 21.4375 q 1.78646,-0.14583 3.24479,-0.72916 1.49479,-0.61979 2.55208,-1.64063 1.09375,-1.02083 1.67708,-2.44271 0.58334,-1.45833 0.58334,-3.3177 v -5.97917 q 0,-0.80208 -0.21875,-1.20313 -0.18229,-0.4375 -0.51042,-0.61979 -0.29167,-0.21875 -0.65625,-0.25521 -0.32812,-0.0365 -0.61979,-0.0365 h -31.28125 v 42.80208 h -9.47917 v -47.50521 q 0,-0.98437 0.36459,-1.85937 0.36458,-0.875 0.98437,-1.53125 0.65625,-0.65625 1.53125,-1.02084 0.875,-0.36458 1.89584,-0.36458 h 35.98437 q 3.17187,0 5.35937,1.16667 2.1875,1.1302 3.53646,2.8802 1.38542,1.71355 1.96875,3.71875 0.61979,2.00521 0.61979,3.75521 z"
         style="font-style:normal;font-variant:normal;font-weight:normal;font-stretch:normal;font-size:74.66666412px;line-height:1;font-family:Audiowide;-inkscape-font-specification:Audiowide;font-variant-ligatures:normal;font-variant-caps:normal;font-variant-numeric:normal;font-feature-settings:normal;text-align:center;writing-mode:lr-tb;text-anchor:middle;fill:#000000;fill-opacity:1"
         id="path29" />
      <path
         d="m 564.78744,212.57075 q 0,1.96875 -0.6927,4.26563 -0.69271,2.26042 -2.26042,4.22917 -1.53125,1.93229 -4.04688,3.24479 -2.47916,1.3125 -6.05208,1.3125 H 534.6364 q -1.96875,0 -4.26562,-0.69271 -2.26042,-0.69271 -4.22917,-2.22396 -1.93229,-1.56771 -3.24479,-4.04687 -1.3125,-2.51563 -1.3125,-6.08855 0,-1.96875 0.69271,-4.26562 0.69271,-2.29688 2.22396,-4.22917 1.5677,-1.96875 4.04687,-3.28125 2.51563,-1.3125 6.08854,-1.3125 h 17.09896 v 9.04167 H 534.6364 q -1.93229,0 -2.98958,1.20312 -1.05729,1.16667 -1.05729,2.91667 0,1.85938 1.20312,2.91667 1.23959,1.02083 2.91667,1.02083 h 17.02604 q 1.93229,0 2.98958,-1.16667 1.0573,-1.16666 1.0573,-2.91666 v -13.23438 q 0,-1.85937 -1.16667,-2.95312 -1.13021,-1.09375 -2.88021,-1.09375 h -20.81771 v -9.00521 h 20.81771 q 1.96875,0 4.22917,0.69271 2.29687,0.69271 4.22916,2.26042 1.96875,1.53125 3.28125,4.04687 1.3125,2.47917 1.3125,6.05208 z"
         style="font-style:normal;font-variant:normal;font-weight:normal;font-stretch:normal;font-size:74.66666412px;line-height:1;font-family:Audiowide;-inkscape-font-specification:Audiowide;font-variant-ligatures:normal;font-variant-caps:normal;font-variant-numeric:normal;font-feature-settings:normal;text-align:center;writing-mode:lr-tb;text-anchor:middle;fill:#000000;fill-opacity:1"
         id="path31" />
      <path
         d="m 616.19369,212.31555 q 0,2.4427 -0.61979,4.41145 -0.61979,1.9323 -1.64062,3.42709 -1.02084,1.45833 -2.36979,2.51562 -1.34896,1.02084 -2.84375,1.67709 -1.45834,0.65625 -2.98959,0.98437 -1.49479,0.29167 -2.84375,0.29167 h -17.09895 q -2.44271,0 -4.375,-0.61979 -1.9323,-0.6198 -3.42709,-1.64063 -1.45833,-1.05729 -2.51562,-2.40625 -1.02084,-1.34896 -1.67709,-2.80729 -0.65625,-1.49479 -0.98437,-2.98958 -0.29167,-1.53125 -0.29167,-2.84375 v -12.83334 q 0,-3.64583 1.3125,-6.16145 1.34896,-2.55209 3.31771,-4.1198 2.00521,-1.60416 4.33854,-2.29687 2.33334,-0.69271 4.30209,-0.69271 h 17.09895 v 9.47917 h -17.02604 q -1.89583,0 -2.88021,0.98437 -0.98437,0.94792 -0.98437,2.80729 v 12.76042 q 0,1.93229 0.94792,2.91667 0.98437,0.98437 2.84375,0.98437 h 17.09895 q 1.9323,0 2.88021,-0.98437 0.94792,-0.98438 0.94792,-2.84375 v -42.76563 h 9.47916 z"
         style="font-style:normal;font-variant:normal;font-weight:normal;font-stretch:normal;font-size:74.66666412px;line-height:1;font-family:Audiowide;-inkscape-font-specification:Audiowide;font-variant-ligatures:normal;font-variant-caps:normal;font-variant-numeric:normal;font-feature-settings:normal;text-align:center;writing-mode:lr-tb;text-anchor:middle;fill:#000000;fill-opacity:1"
         id="path33" />
      <path
         d="m 634.93327,178.11763 h -9.47917 v -8.56771 h 9.47917 z m 0,47.50521 h -9.47917 v -39.41146 h 9.47917 z"
         style="font-style:normal;font-variant:normal;font-weight:normal;font-stretch:normal;font-size:74.66666412px;line-height:1;font-family:Audiowide;-inkscape-font-specification:Audiowide;font-variant-ligatures:normal;font-variant-caps:normal;font-variant-numeric:normal;font-feature-settings:normal;text-align:center;writing-mode:lr-tb;text-anchor:middle;fill:#000000;fill-opacity:1"
         id="path35" />
      <path
         d="m 653.59994,178.11763 h -9.47917 v -8.56771 h 9.47917 z m 0,51.29687 q 0,2.44271 -0.61979,4.375 -0.61979,1.96875 -1.64063,3.42709 -1.02083,1.49479 -2.36979,2.51562 -1.34896,1.05729 -2.84375,1.71354 -1.45833,0.65625 -2.95312,0.94792 -1.49479,0.32813 -2.84375,0.32813 h -17.09896 v -9.47917 h 17.09896 q 1.89583,0 2.84375,-0.98438 0.94791,-0.98437 0.94791,-2.84375 v -43.20312 h 9.47917 z"
         style="font-style:normal;font-variant:normal;font-weight:normal;font-stretch:normal;font-size:74.66666412px;line-height:1;font-family:Audiowide;-inkscape-font-specification:Audiowide;font-variant-ligatures:normal;font-variant-caps:normal;font-variant-numeric:normal;font-feature-settings:normal;text-align:center;writing-mode:lr-tb;text-anchor:middle;fill:#000000;fill-opacity:1"
         id="path37" />
      <path
         d="m 700.74057,212.31555 q 0,2.4427 -0.61979,4.41145 -0.61979,1.9323 -1.64063,3.42709 -1.02083,1.45833 -2.36979,2.51562 -1.34896,1.02084 -2.84375,1.67709 -1.45833,0.65625 -2.98958,0.98437 -1.49479,0.29167 -2.84375,0.29167 h -25.66667 v -9.47917 h 25.59375 q 1.93229,0 2.91667,-0.98437 0.98437,-0.98438 0.98437,-2.84375 -0.18229,-3.79167 -3.82812,-3.79167 h -14.69271 q -3.13542,0 -5.32292,-1.09375 -2.1875,-1.09375 -3.57291,-2.73438 -1.34896,-1.64062 -1.96875,-3.53645 -0.58334,-1.89584 -0.58334,-3.53646 0,-3.17188 1.13021,-5.32292 1.13021,-2.1875 2.84375,-3.53646 1.71354,-1.34895 3.71875,-1.93229 2.00521,-0.61979 3.75521,-0.61979 h 23.29688 v 9.47917 h -23.22396 q -0.72917,0 -1.16667,0.18229 -0.40104,0.14583 -0.61979,0.4375 -0.18229,0.25521 -0.21875,0.58333 -0.0365,0.29167 -0.0365,0.58334 0.0365,0.58333 0.21875,0.91145 0.18229,0.32813 0.4375,0.47396 0.29167,0.14584 0.61979,0.18229 0.36459,0 0.69271,0 h 14.69271 q 3.64583,0 6.19792,1.3125 2.55208,1.3125 4.11979,3.31771 1.56771,1.96875 2.26041,4.30208 0.72917,2.33334 0.72917,4.33855 z"
         style="font-style:normal;font-variant:normal;font-weight:normal;font-stretch:normal;font-size:74.66666412px;line-height:1;font-family:Audiowide;-inkscape-font-specification:Audiowide;font-variant-ligatures:normal;font-variant-caps:normal;font-variant-numeric:normal;font-feature-settings:normal;text-align:center;writing-mode:lr-tb;text-anchor:middle;fill:#000000;fill-opacity:1"
         id="path39" />
      <path
         d="m 753.71452,225.62284 h -13.67187 l -19.10417,-18.44792 q -1.60416,-1.45833 -1.49479,-3.64583 0.0729,-1.02084 0.51042,-1.89584 0.47396,-0.91145 1.27604,-1.53124 l 17.31771,-13.96355 h 15.16666 l -22.3125,17.97396 z m -36.67708,0 h -9.47917 v -56.07292 h 9.47917 z"
         style="font-style:normal;font-variant:normal;font-weight:normal;font-stretch:normal;font-size:74.66666412px;line-height:1;font-family:Audiowide;-inkscape-font-specification:Audiowide;font-variant-ligatures:normal;font-variant-caps:normal;font-variant-numeric:normal;font-feature-settings:normal;text-align:center;writing-mode:lr-tb;text-anchor:middle;fill:#000000;fill-opacity:1"
         id="path41" />
      <path
         d="m 798.41242,212.57075 q 0,1.96875 -0.6927,4.26563 -0.69271,2.26042 -2.26042,4.22917 -1.53125,1.93229 -4.04688,3.24479 -2.47916,1.3125 -6.05208,1.3125 h -17.09896 q -1.96875,0 -4.26562,-0.69271 -2.26042,-0.69271 -4.22917,-2.22396 -1.93229,-1.56771 -3.24479,-4.04687 -1.3125,-2.51563 -1.3125,-6.08855 0,-1.96875 0.69271,-4.26562 0.69271,-2.29688 2.22396,-4.22917 1.56771,-1.96875 4.04687,-3.28125 2.51563,-1.3125 6.08854,-1.3125 h 17.09896 v 9.04167 h -17.09896 q -1.93229,0 -2.98958,1.20312 -1.05729,1.16667 -1.05729,2.91667 0,1.85938 1.20312,2.91667 1.23959,1.02083 2.91667,1.02083 h 17.02604 q 1.93229,0 2.98958,-1.16667 1.0573,-1.16666 1.0573,-2.91666 v -13.23438 q 0,-1.85937 -1.16667,-2.95312 -1.13021,-1.09375 -2.88021,-1.09375 h -20.81771 v -9.00521 h 20.81771 q 1.96875,0 4.22917,0.69271 2.29687,0.69271 4.22916,2.26042 1.96875,1.53125 3.28125,4.04687 1.3125,2.47917 1.3125,6.05208 z"
         style="font-style:normal;font-variant:normal;font-weight:normal;font-stretch:normal;font-size:74.66666412px;line-height:1;font-family:Audiowide;-inkscape-font-specification:Audiowide;font-variant-ligatures:normal;font-variant-caps:normal;font-variant-numeric:normal;font-feature-settings:normal;text-align:center;writing-mode:lr-tb;text-anchor:middle;fill:#000000;fill-opacity:1"
         id="path43" />
      <path
         d="m 874.17285,212.31555 q 0,2.4427 -0.61979,4.41145 -0.61979,1.9323 -1.64063,3.42709 -1.02083,1.45833 -2.36979,2.51562 -1.34896,1.02084 -2.84375,1.67709 -1.45833,0.65625 -2.98958,0.98437 -1.49479,0.29167 -2.84375,0.29167 H 843.7666 q -2.44271,0 -4.375,-0.61979 -1.93229,-0.6198 -3.42708,-1.64063 -1.45833,-1.05729 -2.51563,-2.40625 -1.02083,-1.34896 -1.67708,-2.80729 -0.65625,-1.49479 -0.98437,-2.98958 -0.29167,-1.53125 -0.29167,-2.84375 v -12.83334 q 0,-3.64583 1.3125,-6.16145 1.34896,-2.55209 3.31771,-4.1198 2.00521,-1.60416 4.33854,-2.29687 2.33333,-0.69271 4.30208,-0.69271 h 17.09896 v 9.47917 h -17.02604 q -1.89583,0 -2.88021,0.98437 -0.98437,0.94792 -0.98437,2.80729 v 12.76042 q 0,1.93229 0.94791,2.91667 0.98438,0.98437 2.84375,0.98437 h 17.09896 q 1.93229,0 2.88021,-0.98437 0.94791,-0.98438 0.94791,-2.84375 v -42.76563 h 9.47917 z"
         style="font-style:normal;font-variant:normal;font-weight:normal;font-stretch:normal;font-size:74.66666412px;line-height:1;font-family:Audiowide;-inkscape-font-specification:Audiowide;font-variant-ligatures:normal;font-variant-caps:normal;font-variant-numeric:normal;font-feature-settings:normal;text-align:center;writing-mode:lr-tb;text-anchor:middle;fill:#000000;fill-opacity:1"
         id="path45" />
      <path
         d="m 917.77701,195.69055 h -21.32813 q -1.93229,0 -2.91666,0.98437 -0.98438,0.94792 -0.98438,2.80729 v 26.14063 h -9.47916 v -26.14063 q 0,-2.4427 0.61979,-4.375 0.61979,-1.93229 1.64062,-3.39062 1.05729,-1.49479 2.40625,-2.51563 1.34896,-1.05729 2.80729,-1.71354 1.4948,-0.65625 2.98959,-0.94791 1.53125,-0.32813 2.84375,-0.32813 h 21.40104 z"
         style="font-style:normal;font-variant:normal;font-weight:normal;font-stretch:normal;font-size:74.66666412px;line-height:1;font-family:Audiowide;-inkscape-font-specification:Audiowide;font-variant-ligatures:normal;font-variant-caps:normal;font-variant-numeric:normal;font-feature-settings:normal;text-align:center;writing-mode:lr-tb;text-anchor:middle;fill:#000000;fill-opacity:1"
         id="path47" />
      <path
         d="m 967.06867,220.8468 q 0,1.02083 -0.36458,1.89583 -0.36458,0.875 -1.02083,1.53125 -0.61979,0.61979 -1.49479,0.98437 -0.83855,0.36459 -1.82292,0.36459 h -21.4375 q -1.75,0 -3.75521,-0.40104 -1.96875,-0.40105 -3.90104,-1.27605 -1.93229,-0.91145 -3.75521,-2.26041 -1.78646,-1.38542 -3.13541,-3.31771 -1.34896,-1.96875 -2.1875,-4.52083 -0.80209,-2.55209 -0.80209,-5.76042 v -21.875 h 9.47917 v 21.875 q 0,1.85937 0.61979,3.35417 0.65625,1.45833 1.75,2.51562 1.09375,1.05729 2.55208,1.64063 1.4948,0.54687 3.20834,0.54687 h 16.58854 v -29.93229 h 9.47916 z"
         style="font-style:normal;font-variant:normal;font-weight:normal;font-stretch:normal;font-size:74.66666412px;line-height:1;font-family:Audiowide;-inkscape-font-specification:Audiowide;font-variant-ligatures:normal;font-variant-caps:normal;font-variant-numeric:normal;font-feature-settings:normal;text-align:center;writing-mode:lr-tb;text-anchor:middle;fill:#000000;fill-opacity:1"
         id="path49" />
      <path
         d="m 1013.3708,189.12805 q 0.5833,1.34896 0.2916,2.73437 -0.2552,1.38542 -1.2396,2.40625 l -21.91142,21.875 h 22.78642 v 9.47917 h -34.19787 q -1.45834,0 -2.66146,-0.80209 -1.16667,-0.83854 -1.75,-2.11458 -0.54688,-1.34896 -0.29167,-2.73437 0.29167,-1.42188 1.34896,-2.47917 l 21.80208,-21.80208 h -22.78646 v -9.47917 h 34.27082 q 1.4219,0 2.5886,0.76563 1.2031,0.76562 1.75,2.15104 z m -32.01046,-23.07813 12.6875,6.5625 12.68746,-6.5625 4.4115,6.125 -17.09896,9.69792 -17.09896,-9.69792 z"
         style="font-style:normal;font-variant:normal;font-weight:normal;font-stretch:normal;font-size:74.66666412px;line-height:1;font-family:Audiowide;-inkscape-font-specification:Audiowide;font-variant-ligatures:normal;font-variant-caps:normal;font-variant-numeric:normal;font-feature-settings:normal;text-align:center;writing-mode:lr-tb;text-anchor:middle;fill:#000000;fill-opacity:1"
         id="path51" />
      <path
         d="m 1030.5791,178.11763 h -9.4792 v -8.56771 h 9.4792 z m 0,47.50521 h -9.4792 v -39.41146 h 9.4792 z"
         style="font-style:normal;font-variant:normal;font-weight:normal;font-stretch:normal;font-size:74.66666412px;line-height:1;font-family:Audiowide;-inkscape-font-specification:Audiowide;font-variant-ligatures:normal;font-variant-caps:normal;font-variant-numeric:normal;font-feature-settings:normal;text-align:center;writing-mode:lr-tb;text-anchor:middle;fill:#000000;fill-opacity:1"
         id="path53" />
      <path
         d="m 1083.2978,225.62284 h -9.4791 v -21.875 q 0,-1.85938 -0.6563,-3.31771 -0.6198,-1.49479 -1.7135,-2.55208 -1.0938,-1.05729 -2.5886,-1.60417 -1.4583,-0.58333 -3.1719,-0.58333 h -16.5885 v 29.93229 h -9.4792 v -34.70833 q 0,-0.98438 0.3646,-1.82292 0.3646,-0.875 1.0209,-1.49479 0.6562,-0.65625 1.5312,-1.02084 0.875,-0.36458 1.8594,-0.36458 h 21.3646 q 1.7864,0 3.7552,0.40104 2.0052,0.40104 3.9375,1.3125 1.9687,0.875 3.7187,2.26042 1.7865,1.34896 3.1354,3.31771 1.3855,1.93229 2.1875,4.48437 0.8021,2.55209 0.8021,5.76042 z"
         style="font-style:normal;font-variant:normal;font-weight:normal;font-stretch:normal;font-size:74.66666412px;line-height:1;font-family:Audiowide;-inkscape-font-specification:Audiowide;font-variant-ligatures:normal;font-variant-caps:normal;font-variant-numeric:normal;font-feature-settings:normal;text-align:center;writing-mode:lr-tb;text-anchor:middle;fill:#000000;fill-opacity:1"
         id="path55" />
      <path
         d="m 1132.3707,212.57075 q 0,1.96875 -0.6927,4.26563 -0.6927,2.26042 -2.2604,4.22917 -1.5312,1.93229 -4.0469,3.24479 -2.4791,1.3125 -6.052,1.3125 h -17.099 q -1.9688,0 -4.2656,-0.69271 -2.2604,-0.69271 -4.2292,-2.22396 -1.9323,-1.56771 -3.2448,-4.04687 -1.3125,-2.51563 -1.3125,-6.08855 0,-1.96875 0.6927,-4.26562 0.6927,-2.29688 2.224,-4.22917 1.5677,-1.96875 4.0469,-3.28125 2.5156,-1.3125 6.0885,-1.3125 h 17.099 v 9.04167 h -17.099 q -1.9323,0 -2.9896,1.20312 -1.0573,1.16667 -1.0573,2.91667 0,1.85938 1.2031,2.91667 1.2396,1.02083 2.9167,1.02083 h 17.0261 q 1.9322,0 2.9895,-1.16667 1.0573,-1.16666 1.0573,-2.91666 v -13.23438 q 0,-1.85937 -1.1666,-2.95312 -1.1302,-1.09375 -2.8802,-1.09375 h -20.8178 v -9.00521 h 20.8178 q 1.9687,0 4.2291,0.69271 2.2969,0.69271 4.2292,2.26042 1.9687,1.53125 3.2812,4.04687 1.3125,2.47917 1.3125,6.05208 z"
         style="font-style:normal;font-variant:normal;font-weight:normal;font-stretch:normal;font-size:74.66666412px;line-height:1;font-family:Audiowide;-inkscape-font-specification:Audiowide;font-variant-ligatures:normal;font-variant-caps:normal;font-variant-numeric:normal;font-feature-settings:normal;text-align:center;writing-mode:lr-tb;text-anchor:middle;fill:#000000;fill-opacity:1"
         id="path57" />
      <path
         d="m 703.04785,337.26866 q -4.35937,0 -11.8125,-3.1875 -7.45312,-3.1875 -11.625,-3.1875 -3.70312,0 -7.26562,2.34375 l -4.40625,3.65625 q -0.65625,0.51563 -1.3125,0.51563 -1.54688,0 -1.54688,-2.90625 0,-5.76563 3,-12.1875 3.09375,-6.60938 8.76563,-12.375 3.42187,-3.51563 11.4375,-9.98438 8.53125,-6.79687 13.17187,-11.25 6.60938,-6.375 9.46875,-13.07812 -5.4375,2.85937 -10.21875,2.85937 -3.89062,0 -10.59375,-2.53125 -6.65625,-2.53125 -10.03125,-2.53125 -3.14062,0 -5.29687,1.875 -2.29688,1.96875 -2.29688,5.0625 0,1.875 0.98438,3.28125 1.125,1.59375 2.90625,1.59375 2.53125,0 2.53125,-2.15625 0,-1.59375 -1.54688,-1.59375 -1.35937,0 -1.35937,-1.21875 0,-1.17187 1.73437,-2.0625 1.5,-0.75 2.8125,-0.75 2.57813,0 4.17188,1.64063 1.64062,1.64062 1.64062,4.26562 0,3.23438 -3,5.48438 -2.8125,2.10937 -6.09375,2.10937 -4.5,0 -6.9375,-3.51562 -2.15625,-3.09375 -2.15625,-7.73438 0,-5.85937 6.14063,-9.60937 5.34375,-3.23438 11.57812,-3.23438 3.5625,0 10.03125,2.53125 6.46875,2.53125 10.03125,2.53125 5.25,0 8.25,-4.40625 0.60938,-0.70312 1.40625,-0.70312 0.46875,0 2.34375,0.98437 0.79688,0.46875 0.79688,1.40625 0,1.82813 -2.625,7.5 -4.64063,10.17188 -13.96875,18.28125 -2.625,2.29688 -11.10938,9.09375 -9.14062,7.3125 -14.10937,13.5 -3.5625,4.35938 -4.96875,9.65625 5.4375,-3.9375 10.82812,-3.9375 5.34375,0 13.17188,3.75 7.875,3.75 11.85937,3.75 6.09375,0 6.09375,-5.8125 0,-2.01562 -1.35937,-3.32812 -1.3125,-1.35938 -3.32813,-1.35938 -3.375,0 -3.375,2.53125 0,1.45313 -1.40625,1.45313 -0.42187,0 -0.98437,-0.28125 -1.92188,-1.5 -1.92188,-4.26563 0,-3.28125 2.57813,-5.39062 2.4375,-2.01563 5.76562,-2.01563 4.21875,0 7.07813,3.14063 2.85937,3.09375 2.85937,7.35937 0,6.51563 -5.25,10.64063 -4.875,3.79687 -11.53125,3.79687 z"
         style="font-style:normal;font-variant:normal;font-weight:normal;font-stretch:normal;font-size:96px;line-height:1;font-family:'Harrington Bold';-inkscape-font-specification:'Harrington Bold, ';font-variant-ligatures:normal;font-variant-caps:normal;font-variant-numeric:normal;font-feature-settings:normal;text-align:center;writing-mode:lr-tb;text-anchor:middle;fill:#f1c212;fill-opacity:1"
         id="path59" />
      <path
         d="m 762.9541,300.47179 q -1.5,5.8125 -8.8125,19.96875 -3,5.29687 -8.57812,15.98437 -0.60938,0.84375 -1.40625,0.84375 -1.21875,0 -2.67188,-2.85937 -1.78125,-3.1875 -5.25,-9.65625 -7.59375,-14.85938 -9.5625,-30.1875 -0.0469,-0.51563 -1.03125,-1.26563 l -2.01562,-1.54687 q -0.65625,-0.65625 -0.65625,-1.3125 0,-1.26563 1.6875,-1.35938 0.9375,-0.0469 2.85937,0.0937 2.20313,0.1875 3,0.1875 1.3125,0 3.23438,-0.14062 1.92187,-0.1875 2.625,-0.14063 1.54687,0.0469 1.54687,1.45313 0,0.70312 -0.60937,1.3125 -2.53125,1.96875 -2.48438,2.67187 0.89063,9.9375 4.17188,18.32813 2.20312,5.67187 3.65625,8.48437 0.98437,1.92188 2.95312,5.10938 4.03125,-8.0625 7.40625,-15.79688 4.78125,-11.0625 4.78125,-16.6875 0,-1.35937 -0.70312,-2.57812 -0.79688,-1.45313 -2.0625,-1.5 -0.0937,0 -0.42188,0.0469 -1.64062,0.14063 -1.64062,1.92188 0,0.28125 0.0469,0.42187 0.23438,1.875 -1.26562,1.875 -1.40625,0 -2.53125,-1.875 -0.98438,-1.64062 -0.98438,-3.09375 0,-2.53125 1.875,-4.3125 1.92188,-1.78125 4.5,-1.78125 4.35938,0 6.9375,3.23438 2.34375,3 2.34375,7.45312 0,3.14063 -0.9375,6.70313 z"
         style="font-style:normal;font-variant:normal;font-weight:normal;font-stretch:normal;font-size:96px;line-height:1;font-family:'Harrington Bold';-inkscape-font-specification:'Harrington Bold, ';font-variant-ligatures:normal;font-variant-caps:normal;font-variant-numeric:normal;font-feature-settings:normal;text-align:center;writing-mode:lr-tb;text-anchor:middle;fill:#f1c212;fill-opacity:1"
         id="path61" />
      <path
         d="m 795.3916,337.26866 q -10.5,0 -17.67187,-7.21875 -7.17188,-7.26562 -7.17188,-17.8125 0,-10.3125 7.3125,-17.48437 7.3125,-7.17188 17.625,-7.17188 10.40625,0 17.53125,7.35938 7.125,7.3125 7.125,17.76562 0,10.17188 -7.3125,17.39063 -7.26562,7.17187 -17.4375,7.17187 z m 12,-36.5625 q -7.07812,-6.9375 -15.46875,-6.9375 -6.28125,0 -10.82812,4.21875 -4.64063,4.35938 -4.64063,10.59375 0,8.625 6.70313,15.5625 6.75,6.9375 15.32812,6.9375 7.03125,0 11.39063,-4.59375 4.35937,-4.64062 4.35937,-11.71875 0,-7.35937 -6.84375,-14.0625 z"
         style="font-style:normal;font-variant:normal;font-weight:normal;font-stretch:normal;font-size:96px;line-height:1;font-family:'Harrington Bold';-inkscape-font-specification:'Harrington Bold, ';font-variant-ligatures:normal;font-variant-caps:normal;font-variant-numeric:normal;font-feature-settings:normal;text-align:center;writing-mode:lr-tb;text-anchor:middle;fill:#f1c212;fill-opacity:1"
         id="path63" />
      <path
         d="m 860.92285,330.19054 q 2.76563,-0.0469 4.125,-0.9375 0.75,-0.70313 2.29688,-1.59375 0.1875,-0.0469 0.32812,-0.0469 1.73438,0 1.21875,1.96875 -0.28125,2.01563 -0.28125,2.8125 0,1.82813 0.1875,2.95313 0.32813,2.01562 -1.3125,2.01562 -0.51562,0 -0.98437,-0.32812 -2.8125,-1.59375 -6.46875,-1.59375 -2.29688,0 -4.125,0.32812 -2.4375,0.42188 -2.4375,-1.78125 0,-0.60937 0.28125,-1.07812 4.21875,-6.5625 5.90625,-10.54688 2.48437,-5.90625 2.48437,-11.8125 0,-6.28125 -2.57812,-10.64062 -3.14063,-5.20313 -9.04688,-5.20313 -7.03125,0 -10.78125,6.98438 v 28.54687 q 0,0.51563 2.48438,2.48438 0.84375,0.84375 0.84375,1.64062 0,1.40625 -1.73438,1.40625 -0.9375,0 -2.76562,-0.14062 -1.82813,-0.14063 -2.76563,-0.14063 -0.98437,0 -2.625,0.0937 -1.96875,0.14063 -2.57812,0.1875 -2.10938,0.0937 -2.10938,-1.45312 0,-0.98438 1.6875,-2.39063 1.6875,-1.40625 1.6875,-1.6875 v -27.75 q 0,-3.32812 -1.64062,-5.29687 -0.84375,-1.03125 -3.09375,-2.29688 -1.64063,-0.98437 -1.64063,-1.82812 0,-0.75 1.03125,-1.73438 0.79688,-0.75 1.64063,-1.45312 2.4375,-2.4375 2.90625,-2.4375 0.60937,0 1.03125,0.375 4.3125,3.5625 6.28125,8.10937 6,-8.34375 13.64062,-8.34375 8.90625,0 13.73438,6.70313 3.79687,5.29687 3.79687,11.76562 0,13.5 -8.625,24.14063 z"
         style="font-style:normal;font-variant:normal;font-weight:normal;font-stretch:normal;font-size:96px;line-height:1;font-family:'Harrington Bold';-inkscape-font-specification:'Harrington Bold, ';font-variant-ligatures:normal;font-variant-caps:normal;font-variant-numeric:normal;font-feature-settings:normal;text-align:center;writing-mode:lr-tb;text-anchor:middle;fill:#f1c212;fill-opacity:1"
         id="path65" />
      <path
         d="m 903.2041,337.26866 q -10.5,0 -17.67187,-7.21875 -7.17188,-7.26562 -7.17188,-17.8125 0,-10.3125 7.3125,-17.48437 7.3125,-7.17188 17.625,-7.17188 10.40625,0 17.53125,7.35938 7.125,7.3125 7.125,17.76562 0,10.17188 -7.3125,17.39063 -7.26562,7.17187 -17.4375,7.17187 z m 12,-36.5625 q -7.07812,-6.9375 -15.46875,-6.9375 -6.28125,0 -10.82812,4.21875 -4.64063,4.35938 -4.64063,10.59375 0,8.625 6.70313,15.5625 6.75,6.9375 15.32812,6.9375 7.03125,0 11.39063,-4.59375 4.35937,-4.64062 4.35937,-11.71875 0,-7.35937 -6.84375,-14.0625 z"
         style="font-style:normal;font-variant:normal;font-weight:normal;font-stretch:normal;font-size:96px;line-height:1;font-family:'Harrington Bold';-inkscape-font-specification:'Harrington Bold, ';font-variant-ligatures:normal;font-variant-caps:normal;font-variant-numeric:normal;font-feature-settings:normal;text-align:center;writing-mode:lr-tb;text-anchor:middle;fill:#f1c212;fill-opacity:1"
         id="path67" />
    </g>
    <text
       xml:space="preserve"
       style="font-style:normal;font-variant:normal;font-weight:normal;font-stretch:normal;font-size:10.58333302px;line-height:1.25;font-family:Forte;-inkscape-font-specification:Forte;letter-spacing:0px;word-spacing:0px;fill:#000000;fill-opacity:1;stroke:none;stroke-width:0.26458332"
       x="138.16257"
       y="78.776817"
       id="text29"><tspan
         sodipodi:role="line"
         id="tspan27"
         x="138.16257"
         y="88.130478"
         style="stroke-width:0.26458332" /></text>
  </g>
</svg>
